<svg width="4569" height="1000" viewBox="0 0 4569 1000" fill="none" xmlns="http://www.w3.org/2000/svg">
  <path d="M203.112 110H237.478V623.592H203.112V110Z" fill="#F8FAFC"/>
  <path d="M155 110H189.366V671.655H155V110Z" fill="#F8FAFC"/>
  <path d="M155 671.655L155 637.324H524.777V671.655H155Z" fill="#F8FAFC"/>
  <path d="M203.112 623.592V589.261H524.777V623.592H203.112Z" fill="#F8FAFC"/>
  <path d="M538.523 342.077H572.889V890H538.523V342.077Z" fill="#F8FAFC"/>
  <path d="M321.331 328.345V294.014H743V328.345H321.331Z" fill="#F8FAFC"/>
  <path d="M524.777 342.077V376.408H321.331V342.077H524.777ZM743 376.408H538.523V342.077H743V376.408Z" fill="#F8FAFC"/>
  <path d="M524.777 890H490.411V637.324H524.777V890ZM524.777 623.592H490.411V342.077H524.777V623.592Z" fill="#F8FAFC"/>
  <path d="M999.1 745V255H1029.2V745H999.1ZM1018 745V718.4H1301.5V745H1018ZM1659.04 745V409H1687.74V745H1659.04ZM1504.34 756.2C1471.2 756.2 1441.1 748.267 1414.04 732.4C1386.97 716.533 1365.5 695.067 1349.64 668C1333.77 640.467 1325.84 610.133 1325.84 577C1325.84 543.4 1333.77 513.067 1349.64 486C1365.5 458.933 1386.97 437.467 1414.04 421.6C1441.1 405.733 1471.2 397.8 1504.34 397.8C1537.47 397.8 1567.1 405.733 1593.24 421.6C1619.84 437.467 1641.07 458.933 1656.94 486C1672.8 513.067 1680.74 543.4 1680.74 577C1680.74 610.133 1672.8 640.467 1656.94 668C1641.07 695.067 1619.84 716.533 1593.24 732.4C1567.1 748.267 1537.47 756.2 1504.34 756.2ZM1507.84 729.6C1536.3 729.6 1561.74 722.833 1584.14 709.3C1607 695.767 1625.2 677.567 1638.74 654.7C1652.27 631.367 1659.04 605.467 1659.04 577C1659.04 548.533 1652.27 522.867 1638.74 500C1625.2 476.667 1607 458.233 1584.14 444.7C1561.74 430.7 1536.3 423.7 1507.84 423.7C1479.84 423.7 1454.4 430.7 1431.54 444.7C1408.67 458.233 1390.47 476.667 1376.94 500C1363.4 522.867 1356.64 548.533 1356.64 577C1356.64 605.467 1363.4 631.367 1376.94 654.7C1390.47 677.567 1408.67 695.767 1431.54 709.3C1454.4 722.833 1479.84 729.6 1507.84 729.6ZM2101.42 745L2216.22 409H2247.72L2128.02 745H2101.42ZM1863.42 745L1746.52 409H1778.02L1887.92 745H1863.42ZM1866.22 745L1981.02 409H2011.82L1893.52 745H1866.22ZM2096.52 745L1981.72 409H2013.22L2123.12 745H2096.52ZM2346.83 917.2L2565.93 408.3H2598.83L2374.83 917.2H2346.83ZM2421.03 745L2254.43 409H2289.43L2449.73 745H2421.03ZM2801.8 756.2C2768.66 756.2 2738.56 748.267 2711.5 732.4C2684.43 716.533 2662.96 695.067 2647.1 668C2631.23 640.467 2623.3 610.133 2623.3 577C2623.3 543.4 2630.3 513.067 2644.3 486C2658.3 458.933 2677.9 437.467 2703.1 421.6C2728.3 405.733 2757.93 397.8 2792 397.8C2827 397.8 2857.33 405.733 2883 421.6C2909.13 437.467 2929.2 458.933 2943.2 486C2957.66 513.067 2964.9 543.167 2964.9 576.3C2964.9 578.633 2964.66 581.2 2964.2 584C2964.2 586.8 2963.73 589.133 2962.8 591H2935.5C2935.96 589.133 2936.2 586.8 2936.2 584C2936.2 581.2 2936.2 578.167 2936.2 574.9C2936.2 546.9 2930.36 521.467 2918.7 498.6C2907.03 475.733 2890.46 457.533 2869 444C2847.53 430.467 2821.63 423.7 2791.3 423.7C2762.83 423.7 2738.1 430.467 2717.1 444C2696.1 457.533 2680 475.967 2668.8 499.3C2658.06 522.167 2652.7 548.067 2652.7 577C2652.7 605 2659.46 630.667 2673 654C2686.53 676.867 2704.73 695.3 2727.6 709.3C2750.93 722.833 2776.6 729.6 2804.6 729.6C2820.46 729.6 2836.56 727.033 2852.9 721.9C2869.7 716.767 2885.1 709.533 2899.1 700.2C2913.56 690.867 2925 680.6 2933.4 669.4L2951.6 689C2941.8 701.6 2928.5 713.033 2911.7 723.3C2894.9 733.1 2876.93 741.033 2857.8 747.1C2838.66 753.167 2820 756.2 2801.8 756.2ZM2640.8 591V565.1H2951.6V591H2640.8ZM3029.21 745V409H3059.31V488.1L3056.51 484.6C3065.38 459.4 3078.68 438.633 3096.41 422.3C3114.14 405.967 3136.31 397.8 3162.91 397.8C3180.64 397.8 3197.44 402 3213.31 410.4C3229.64 418.333 3243.64 429.533 3255.31 444C3267.44 458 3275.84 473.633 3280.51 490.9L3253.91 504.9C3249.71 489.967 3242.48 476.433 3232.21 464.3C3222.41 451.7 3210.74 441.9 3197.21 434.9C3184.14 427.433 3170.61 423.7 3156.61 423.7C3135.61 423.7 3117.88 430.233 3103.41 443.3C3088.94 456.367 3077.98 473.167 3070.51 493.7C3063.04 513.767 3059.31 535.233 3059.31 558.1V745H3029.21ZM3475.72 745V255H3505.82V745H3475.72ZM3283.92 281.6V255H3696.92V281.6H3283.92ZM3841.54 756.2C3808.41 756.2 3778.31 748.267 3751.24 732.4C3724.18 716.533 3702.71 695.067 3686.84 668C3670.98 640.467 3663.04 610.133 3663.04 577C3663.04 543.4 3670.04 513.067 3684.04 486C3698.04 458.933 3717.64 437.467 3742.84 421.6C3768.04 405.733 3797.68 397.8 3831.74 397.8C3866.74 397.8 3897.08 405.733 3922.74 421.6C3948.88 437.467 3968.94 458.933 3982.94 486C3997.41 513.067 4004.64 543.167 4004.64 576.3C4004.64 578.633 4004.41 581.2 4003.94 584C4003.94 586.8 4003.48 589.133 4002.54 591H3975.24C3975.71 589.133 3975.94 586.8 3975.94 584C3975.94 581.2 3975.94 578.167 3975.94 574.9C3975.94 546.9 3970.11 521.467 3958.44 498.6C3946.78 475.733 3930.21 457.533 3908.74 444C3887.28 430.467 3861.38 423.7 3831.04 423.7C3802.58 423.7 3777.84 430.467 3756.84 444C3735.84 457.533 3719.74 475.967 3708.54 499.3C3697.81 522.167 3692.44 548.067 3692.44 577C3692.44 605 3699.21 630.667 3712.74 654C3726.28 676.867 3744.48 695.3 3767.34 709.3C3790.68 722.833 3816.34 729.6 3844.34 729.6C3860.21 729.6 3876.31 727.033 3892.64 721.9C3909.44 716.767 3924.84 709.533 3938.84 700.2C3953.31 690.867 3964.74 680.6 3973.14 669.4L3991.34 689C3981.54 701.6 3968.24 713.033 3951.44 723.3C3934.64 733.1 3916.68 741.033 3897.54 747.1C3878.41 753.167 3859.74 756.2 3841.54 756.2ZM3680.54 591V565.1H3991.34V591H3680.54ZM4230.66 756.2C4196.12 756.2 4164.86 748.267 4136.86 732.4C4108.86 716.533 4086.69 695.067 4070.36 668C4054.02 640.467 4045.86 610.133 4045.86 577C4045.86 543.4 4054.02 513.067 4070.36 486C4086.69 458.933 4108.86 437.467 4136.86 421.6C4164.86 405.733 4196.12 397.8 4230.66 397.8C4252.59 397.8 4274.06 402 4295.06 410.4C4316.52 418.333 4335.89 429.533 4353.16 444C4370.89 458.467 4384.42 474.8 4393.76 493L4368.56 507.7C4361.09 491.367 4349.89 476.9 4334.96 464.3C4320.49 451.7 4304.16 441.9 4285.96 434.9C4267.76 427.433 4249.32 423.7 4230.66 423.7C4202.19 423.7 4176.06 430.7 4152.26 444.7C4128.92 458.233 4110.49 476.667 4096.96 500C4083.42 522.867 4076.66 548.533 4076.66 577C4076.66 605.467 4083.42 631.367 4096.96 654.7C4110.49 677.567 4128.92 695.767 4152.26 709.3C4176.06 722.833 4202.19 729.6 4230.66 729.6C4248.39 729.6 4266.12 726.1 4283.86 719.1C4302.06 711.633 4318.62 701.6 4333.56 689C4348.49 676.4 4360.39 662.167 4369.26 646.3L4395.86 656.1C4386.99 674.767 4373.69 691.8 4355.96 707.2C4338.69 722.133 4319.09 734.033 4297.16 742.9C4275.69 751.767 4253.52 756.2 4230.66 756.2Z" fill="#F8FAFC"/>
</svg>
